<mxfile host="drawio-plugin" modified="2021-06-02T07:58:39.254Z" agent="5.0 (Windows NT 6.2; Win64; x64) AppleWebKit/537.36 (KHTML, like Gecko) Chrome/87.0.4280.141 Safari/537.36" etag="cgL0_ktWtOENBzmxpNEH" version="14.6.6" type="embed" pages="2"><diagram id="W-UwgoNvEwQXQmL4FrwV" name="Tag-features-model"><mxGraphModel dx="744" dy="526" grid="1" gridSize="10" guides="1" tooltips="1" connect="1" arrows="1" fold="1" page="1" pageScale="1" pageWidth="850" pageHeight="1100" math="0" shadow="0"><root><mxCell id="aK382W0hp0mPZXu5n3Yf-0"/><mxCell id="aK382W0hp0mPZXu5n3Yf-1" parent="aK382W0hp0mPZXu5n3Yf-0"/><mxCell id="JMlYKUXQhX_QJ3TKNDeK-53" value="frame" style="shape=umlFrame;whiteSpace=wrap;html=1;width=55;height=50;dashed=1;fontStyle=1" parent="aK382W0hp0mPZXu5n3Yf-1" vertex="1"><mxGeometry x="405" y="326" width="1015" height="630" as="geometry"/></mxCell><mxCell id="JMlYKUXQhX_QJ3TKNDeK-16" value="{abstract}&lt;br&gt;TaggedItemBase" style="rounded=0;whiteSpace=wrap;html=1;" parent="aK382W0hp0mPZXu5n3Yf-1" vertex="1"><mxGeometry x="700" y="866" width="120" height="60" as="geometry"/></mxCell><mxCell id="JMlYKUXQhX_QJ3TKNDeK-24" value="TaggedItem" style="rounded=0;whiteSpace=wrap;html=1;" parent="aK382W0hp0mPZXu5n3Yf-1" vertex="1"><mxGeometry x="1100" y="826" width="120" height="60" as="geometry"/></mxCell><mxCell id="JMlYKUXQhX_QJ3TKNDeK-25" value="&lt;p style=&quot;margin: 0px ; margin-top: 4px ; text-align: center&quot;&gt;&lt;b&gt;Tag&lt;/b&gt;&lt;/p&gt;&lt;hr size=&quot;1&quot;&gt;&lt;p style=&quot;margin: 0px ; margin-left: 4px&quot;&gt;+ field: Type&lt;/p&gt;&lt;hr size=&quot;1&quot;&gt;&lt;p style=&quot;margin: 0px ; margin-left: 4px&quot;&gt;+ method(): Type&lt;/p&gt;" style="verticalAlign=top;align=left;overflow=fill;fontSize=12;fontFamily=Helvetica;html=1;" parent="aK382W0hp0mPZXu5n3Yf-1" vertex="1"><mxGeometry x="470" y="716" width="160" height="90" as="geometry"/></mxCell><mxCell id="JMlYKUXQhX_QJ3TKNDeK-26" value="Extends" style="endArrow=block;endSize=16;endFill=0;html=1;exitX=0.5;exitY=0;exitDx=0;exitDy=0;entryX=0.5;entryY=1;entryDx=0;entryDy=0;" parent="aK382W0hp0mPZXu5n3Yf-1" source="JMlYKUXQhX_QJ3TKNDeK-25" target="JMlYKUXQhX_QJ3TKNDeK-101" edge="1"><mxGeometry width="160" relative="1" as="geometry"><mxPoint x="480" y="826" as="sourcePoint"/><mxPoint x="560" y="492" as="targetPoint"/><Array as="points"/></mxGeometry></mxCell><mxCell id="JMlYKUXQhX_QJ3TKNDeK-32" value="Use" style="endArrow=open;endSize=12;dashed=1;html=1;exitX=0.013;exitY=0.589;exitDx=0;exitDy=0;exitPerimeter=0;entryX=1;entryY=0.5;entryDx=0;entryDy=0;" parent="aK382W0hp0mPZXu5n3Yf-1" source="JMlYKUXQhX_QJ3TKNDeK-25" target="JMlYKUXQhX_QJ3TKNDeK-36" edge="1"><mxGeometry width="160" relative="1" as="geometry"><mxPoint x="360" y="806" as="sourcePoint"/><mxPoint x="443.03999999999996" y="753.5" as="targetPoint"/></mxGeometry></mxCell><mxCell id="JMlYKUXQhX_QJ3TKNDeK-34" value="Meta" style="swimlane;fontStyle=0;childLayout=stackLayout;horizontal=1;startSize=26;fillColor=none;horizontalStack=0;resizeParent=1;resizeParentMax=0;resizeLast=0;collapsible=1;marginBottom=0;" parent="aK382W0hp0mPZXu5n3Yf-1" vertex="1"><mxGeometry x="190" y="676" width="200" height="104" as="geometry"/></mxCell><mxCell id="JMlYKUXQhX_QJ3TKNDeK-35" value="verbose_name=_(&quot;tag&quot;)&#10;" style="text;strokeColor=none;fillColor=none;align=left;verticalAlign=top;spacingLeft=4;spacingRight=4;overflow=hidden;rotatable=0;points=[[0,0.5],[1,0.5]];portConstraint=eastwest;" parent="JMlYKUXQhX_QJ3TKNDeK-34" vertex="1"><mxGeometry y="26" width="200" height="26" as="geometry"/></mxCell><mxCell id="JMlYKUXQhX_QJ3TKNDeK-36" value="verbose_name_plural=_(&quot;tag&quot;)" style="text;strokeColor=none;fillColor=none;align=left;verticalAlign=top;spacingLeft=4;spacingRight=4;overflow=hidden;rotatable=0;points=[[0,0.5],[1,0.5]];portConstraint=eastwest;" parent="JMlYKUXQhX_QJ3TKNDeK-34" vertex="1"><mxGeometry y="52" width="200" height="26" as="geometry"/></mxCell><mxCell id="JMlYKUXQhX_QJ3TKNDeK-37" value="app_label=&quot;taggit&quot;" style="text;strokeColor=none;fillColor=none;align=left;verticalAlign=top;spacingLeft=4;spacingRight=4;overflow=hidden;rotatable=0;points=[[0,0.5],[1,0.5]];portConstraint=eastwest;" parent="JMlYKUXQhX_QJ3TKNDeK-34" vertex="1"><mxGeometry y="78" width="200" height="26" as="geometry"/></mxCell><mxCell id="JMlYKUXQhX_QJ3TKNDeK-39" value="{abstract}&#10;ItemBase" style="swimlane;fontStyle=1;childLayout=stackLayout;horizontal=1;startSize=40;horizontalStack=0;resizeParent=1;resizeParentMax=0;resizeLast=0;collapsible=1;marginBottom=0;" parent="aK382W0hp0mPZXu5n3Yf-1" vertex="1"><mxGeometry x="710" y="356" width="290" height="144" as="geometry"/></mxCell><mxCell id="JMlYKUXQhX_QJ3TKNDeK-40" value="tag_model(cls)" style="text;align=left;verticalAlign=top;spacingLeft=4;spacingRight=4;overflow=hidden;rotatable=0;points=[[0,0.5],[1,0.5]];portConstraint=eastwest;" parent="JMlYKUXQhX_QJ3TKNDeK-39" vertex="1"><mxGeometry y="40" width="290" height="26" as="geometry"/></mxCell><mxCell id="JMlYKUXQhX_QJ3TKNDeK-41" value="tag_relname(cls)" style="text;align=left;verticalAlign=top;spacingLeft=4;spacingRight=4;overflow=hidden;rotatable=0;points=[[0,0.5],[1,0.5]];portConstraint=eastwest;" parent="JMlYKUXQhX_QJ3TKNDeK-39" vertex="1"><mxGeometry y="66" width="290" height="26" as="geometry"/></mxCell><mxCell id="JMlYKUXQhX_QJ3TKNDeK-42" value="lookup_kwargs(cls, instance)" style="text;align=left;verticalAlign=top;spacingLeft=4;spacingRight=4;overflow=hidden;rotatable=0;points=[[0,0.5],[1,0.5]];portConstraint=eastwest;" parent="JMlYKUXQhX_QJ3TKNDeK-39" vertex="1"><mxGeometry y="92" width="290" height="26" as="geometry"/></mxCell><mxCell id="JMlYKUXQhX_QJ3TKNDeK-43" value="tags_for(cls, model, instance=None, **extra_filter)&#10;" style="text;align=left;verticalAlign=top;spacingLeft=4;spacingRight=4;overflow=hidden;rotatable=0;points=[[0,0.5],[1,0.5]];portConstraint=eastwest;" parent="JMlYKUXQhX_QJ3TKNDeK-39" vertex="1"><mxGeometry y="118" width="290" height="26" as="geometry"/></mxCell><mxCell id="JMlYKUXQhX_QJ3TKNDeK-47" value="Extends" style="endArrow=block;endSize=16;endFill=0;html=1;exitX=0.5;exitY=0;exitDx=0;exitDy=0;" parent="aK382W0hp0mPZXu5n3Yf-1" source="JMlYKUXQhX_QJ3TKNDeK-16" edge="1"><mxGeometry width="160" relative="1" as="geometry"><mxPoint x="610" y="706" as="sourcePoint"/><mxPoint x="780" y="503" as="targetPoint"/><Array as="points"><mxPoint x="720" y="596"/></Array></mxGeometry></mxCell><mxCell id="JMlYKUXQhX_QJ3TKNDeK-85" value="Text" style="edgeLabel;html=1;align=center;verticalAlign=middle;resizable=0;points=[];fontSize=5;" parent="JMlYKUXQhX_QJ3TKNDeK-47" vertex="1" connectable="0"><mxGeometry x="-0.3153" y="7" relative="1" as="geometry"><mxPoint as="offset"/></mxGeometry></mxCell><mxCell id="JMlYKUXQhX_QJ3TKNDeK-50" value="1" style="endArrow=open;html=1;endSize=12;startArrow=diamondThin;startSize=14;startFill=1;edgeStyle=orthogonalEdgeStyle;align=left;verticalAlign=bottom;entryX=1;entryY=0.5;entryDx=0;entryDy=0;exitX=0;exitY=0.5;exitDx=0;exitDy=0;" parent="aK382W0hp0mPZXu5n3Yf-1" source="JMlYKUXQhX_QJ3TKNDeK-16" target="JMlYKUXQhX_QJ3TKNDeK-25" edge="1"><mxGeometry x="-1" y="3" relative="1" as="geometry"><mxPoint x="600" y="786" as="sourcePoint"/><mxPoint x="760" y="786" as="targetPoint"/></mxGeometry></mxCell><mxCell id="JMlYKUXQhX_QJ3TKNDeK-55" value="&lt;span class=&quot;pl-s1&quot; style=&quot;box-sizing: border-box; color: rgb(36, 41, 46); font-size: 5px;&quot;&gt;related_name&lt;/span&gt;&lt;span class=&quot;pl-c1&quot; style=&quot;box-sizing: border-box; font-size: 5px;&quot;&gt;=&lt;/span&gt;&lt;span class=&quot;pl-s&quot; style=&quot;box-sizing: border-box; font-size: 5px;&quot;&gt;&quot;%(app_label)s_%(class)s_items&quot;&lt;/span&gt;&lt;span style=&quot;color: rgb(36, 41, 46); font-size: 5px;&quot;&gt;, &lt;/span&gt;&lt;span class=&quot;pl-s1&quot; style=&quot;box-sizing: border-box; color: rgb(36, 41, 46); font-size: 5px;&quot;&gt;on_delete&lt;/span&gt;&lt;span class=&quot;pl-c1&quot; style=&quot;box-sizing: border-box; font-size: 5px;&quot;&gt;=&lt;/span&gt;&lt;span class=&quot;pl-s1&quot; style=&quot;box-sizing: border-box; color: rgb(36, 41, 46); font-size: 5px;&quot;&gt;models&lt;/span&gt;&lt;span style=&quot;color: rgb(36, 41, 46); font-size: 5px;&quot;&gt;.&lt;/span&gt;&lt;span class=&quot;pl-v&quot; style=&quot;box-sizing: border-box; font-size: 5px;&quot;&gt;CASCADE&lt;/span&gt;" style="edgeLabel;html=1;align=center;verticalAlign=middle;resizable=0;points=[];fontSize=5;" parent="JMlYKUXQhX_QJ3TKNDeK-50" vertex="1" connectable="0"><mxGeometry x="0.0662" y="-1" relative="1" as="geometry"><mxPoint as="offset"/></mxGeometry></mxCell><mxCell id="JMlYKUXQhX_QJ3TKNDeK-57" value="Extends" style="endArrow=block;endSize=16;endFill=0;html=1;exitX=0.5;exitY=0;exitDx=0;exitDy=0;entryX=0.691;entryY=1.147;entryDx=0;entryDy=0;entryPerimeter=0;" parent="aK382W0hp0mPZXu5n3Yf-1" source="JMlYKUXQhX_QJ3TKNDeK-58" target="JMlYKUXQhX_QJ3TKNDeK-43" edge="1"><mxGeometry width="160" relative="1" as="geometry"><mxPoint x="1006.24" y="687.1000000000004" as="sourcePoint"/><mxPoint x="839.06" y="518.99" as="targetPoint"/><Array as="points"><mxPoint x="910" y="616"/></Array></mxGeometry></mxCell><mxCell id="JMlYKUXQhX_QJ3TKNDeK-58" value="&lt;p style=&quot;margin: 0px ; margin-top: 4px ; text-align: center&quot;&gt;&lt;span&gt;{abstract}&lt;/span&gt;&lt;br&gt;&lt;span&gt;CommonGenericItemBase&lt;/span&gt;&lt;br&gt;&lt;/p&gt;&lt;hr size=&quot;1&quot;&gt;&lt;p style=&quot;margin: 0px ; margin-left: 4px&quot;&gt;+ field: Type&lt;/p&gt;&lt;hr size=&quot;1&quot;&gt;&lt;p style=&quot;margin: 0px ; margin-left: 4px&quot;&gt;+ method(): Type&lt;/p&gt;" style="verticalAlign=top;align=left;overflow=fill;fontSize=12;fontFamily=Helvetica;html=1;" parent="aK382W0hp0mPZXu5n3Yf-1" vertex="1"><mxGeometry x="830" y="636" width="160" height="90" as="geometry"/></mxCell><mxCell id="JMlYKUXQhX_QJ3TKNDeK-59" value="&lt;h1 style=&quot;font-family: &amp;#34;roboto&amp;#34; , &amp;#34;corbel&amp;#34; , &amp;#34;avenir&amp;#34; , &amp;#34;lucida grande&amp;#34; , &amp;#34;lucida sans&amp;#34; , sans-serif ; font-weight: 400 ; font-size: 15px ; color: rgb(12 , 60 , 38) ; letter-spacing: -1px ; line-height: 1.1em ; margin: 0.6em 0px ; background-color: rgb(255 , 255 , 255)&quot;&gt;The contenttypes framework&lt;/h1&gt;" style="html=1;dropTarget=0;fontSize=5;" parent="aK382W0hp0mPZXu5n3Yf-1" vertex="1"><mxGeometry x="940" y="43" width="180" height="106" as="geometry"/></mxCell><mxCell id="JMlYKUXQhX_QJ3TKNDeK-60" value="" style="shape=module;jettyWidth=8;jettyHeight=4;" parent="JMlYKUXQhX_QJ3TKNDeK-59" vertex="1"><mxGeometry x="1" width="20" height="20" relative="1" as="geometry"><mxPoint x="-27" y="7" as="offset"/></mxGeometry></mxCell><mxCell id="JMlYKUXQhX_QJ3TKNDeK-61" value="1" style="endArrow=open;html=1;endSize=12;startArrow=diamondThin;startSize=14;startFill=1;edgeStyle=orthogonalEdgeStyle;align=left;verticalAlign=bottom;exitX=0.75;exitY=0;exitDx=0;exitDy=0;entryX=0.5;entryY=1;entryDx=0;entryDy=0;" parent="aK382W0hp0mPZXu5n3Yf-1" source="JMlYKUXQhX_QJ3TKNDeK-58" target="JMlYKUXQhX_QJ3TKNDeK-59" edge="1"><mxGeometry x="-1" y="3" relative="1" as="geometry"><mxPoint x="1100" y="611" as="sourcePoint"/><mxPoint x="1170" y="486" as="targetPoint"/><Array as="points"><mxPoint x="950" y="606"/><mxPoint x="980" y="606"/><mxPoint x="980" y="530"/><mxPoint x="1030" y="530"/></Array></mxGeometry></mxCell><mxCell id="JMlYKUXQhX_QJ3TKNDeK-69" value="Meta" style="swimlane;fontStyle=0;childLayout=stackLayout;horizontal=1;startSize=26;fillColor=none;horizontalStack=0;resizeParent=1;resizeParentMax=0;resizeLast=0;collapsible=1;marginBottom=0;" parent="aK382W0hp0mPZXu5n3Yf-1" vertex="1"><mxGeometry x="50" y="530" width="290" height="78" as="geometry"/></mxCell><mxCell id="JMlYKUXQhX_QJ3TKNDeK-70" value="lookup_kwargs(cls,instance)" style="text;strokeColor=none;fillColor=none;align=left;verticalAlign=top;spacingLeft=4;spacingRight=4;overflow=hidden;rotatable=0;points=[[0,0.5],[1,0.5]];portConstraint=eastwest;" parent="JMlYKUXQhX_QJ3TKNDeK-69" vertex="1"><mxGeometry y="26" width="290" height="26" as="geometry"/></mxCell><mxCell id="JMlYKUXQhX_QJ3TKNDeK-71" value="tags_for(cls, model, instance=None, **extra_filters)" style="text;strokeColor=none;fillColor=none;align=left;verticalAlign=top;spacingLeft=4;spacingRight=4;overflow=hidden;rotatable=0;points=[[0,0.5],[1,0.5]];portConstraint=eastwest;" parent="JMlYKUXQhX_QJ3TKNDeK-69" vertex="1"><mxGeometry y="52" width="290" height="26" as="geometry"/></mxCell><mxCell id="JMlYKUXQhX_QJ3TKNDeK-74" value="Use" style="endArrow=open;endSize=12;dashed=1;html=1;entryX=1;entryY=0.5;entryDx=0;entryDy=0;exitX=0;exitY=0.5;exitDx=0;exitDy=0;" parent="aK382W0hp0mPZXu5n3Yf-1" source="JMlYKUXQhX_QJ3TKNDeK-58" target="JMlYKUXQhX_QJ3TKNDeK-70" edge="1"><mxGeometry width="160" relative="1" as="geometry"><mxPoint x="810" y="726" as="sourcePoint"/><mxPoint x="920" y="867.99" as="targetPoint"/></mxGeometry></mxCell><mxCell id="JMlYKUXQhX_QJ3TKNDeK-121" value="Text" style="edgeLabel;html=1;align=center;verticalAlign=middle;resizable=0;points=[];fontSize=9;fontColor=#009900;" parent="JMlYKUXQhX_QJ3TKNDeK-74" vertex="1" connectable="0"><mxGeometry x="-0.8132" y="-2" relative="1" as="geometry"><mxPoint as="offset"/></mxGeometry></mxCell><mxCell id="JMlYKUXQhX_QJ3TKNDeK-75" value="Extends" style="endArrow=block;endSize=16;endFill=0;html=1;exitX=0;exitY=0.75;exitDx=0;exitDy=0;" parent="aK382W0hp0mPZXu5n3Yf-1" source="JMlYKUXQhX_QJ3TKNDeK-77" edge="1"><mxGeometry width="160" relative="1" as="geometry"><mxPoint x="1090" y="771" as="sourcePoint"/><mxPoint x="990" y="710" as="targetPoint"/><Array as="points"/></mxGeometry></mxCell><mxCell id="JMlYKUXQhX_QJ3TKNDeK-77" value="&lt;p style=&quot;margin: 0px ; margin-top: 4px ; text-align: center&quot;&gt;&lt;span&gt;{abstract}&lt;/span&gt;&lt;br&gt;&lt;span&gt;GenericTaggedItemBase&lt;/span&gt;&lt;br&gt;&lt;/p&gt;&lt;hr size=&quot;1&quot;&gt;&lt;p style=&quot;margin: 0px ; margin-left: 4px&quot;&gt;+ field: objectId = &lt;b&gt;&lt;font color=&quot;#006600&quot;&gt;model&lt;/font&gt;&lt;/b&gt;.IntergerId&lt;/p&gt;" style="verticalAlign=top;align=left;overflow=fill;fontSize=12;fontFamily=Helvetica;html=1;" parent="aK382W0hp0mPZXu5n3Yf-1" vertex="1"><mxGeometry x="1180" y="726" width="200" height="70" as="geometry"/></mxCell><mxCell id="JMlYKUXQhX_QJ3TKNDeK-78" value="&lt;p style=&quot;margin: 0px ; margin-top: 4px ; text-align: center&quot;&gt;&lt;span&gt;{abstract}&lt;/span&gt;&lt;br&gt;&lt;span&gt;GenericUUIDTaggedItemBase&lt;/span&gt;&lt;br&gt;&lt;/p&gt;&lt;hr size=&quot;1&quot;&gt;&lt;p style=&quot;margin: 0px ; margin-left: 4px&quot;&gt;+ field: objectId = &lt;b&gt;&lt;font color=&quot;#336600&quot;&gt;model&lt;/font&gt;&lt;/b&gt;.UUID&lt;/p&gt;" style="verticalAlign=top;align=left;overflow=fill;fontSize=12;fontFamily=Helvetica;html=1;" parent="aK382W0hp0mPZXu5n3Yf-1" vertex="1"><mxGeometry x="1110.3" y="576" width="170" height="70" as="geometry"/></mxCell><mxCell id="JMlYKUXQhX_QJ3TKNDeK-79" value="Extends" style="endArrow=block;endSize=16;endFill=0;html=1;entryX=1;entryY=0.5;entryDx=0;entryDy=0;exitX=0;exitY=0.5;exitDx=0;exitDy=0;" parent="aK382W0hp0mPZXu5n3Yf-1" source="JMlYKUXQhX_QJ3TKNDeK-78" target="JMlYKUXQhX_QJ3TKNDeK-58" edge="1"><mxGeometry width="160" relative="1" as="geometry"><mxPoint x="1103" y="660" as="sourcePoint"/><mxPoint x="1020" y="706" as="targetPoint"/><Array as="points"><mxPoint x="1060" y="620"/></Array></mxGeometry></mxCell><mxCell id="JMlYKUXQhX_QJ3TKNDeK-80" value="&lt;h1 style=&quot;font-family: &amp;#34;roboto&amp;#34; , &amp;#34;corbel&amp;#34; , &amp;#34;avenir&amp;#34; , &amp;#34;lucida grande&amp;#34; , &amp;#34;lucida sans&amp;#34; , sans-serif ; font-weight: 400 ; font-size: 15px ; color: rgb(12 , 60 , 38) ; letter-spacing: -1px ; line-height: 1.1em ; margin: 0.6em 0px ; background-color: rgb(255 , 255 , 255)&quot;&gt;django.db&lt;/h1&gt;" style="html=1;dropTarget=0;fontSize=5;" parent="aK382W0hp0mPZXu5n3Yf-1" vertex="1"><mxGeometry x="1150" y="156" width="180" height="106" as="geometry"/></mxCell><mxCell id="JMlYKUXQhX_QJ3TKNDeK-81" value="" style="shape=module;jettyWidth=8;jettyHeight=4;" parent="JMlYKUXQhX_QJ3TKNDeK-80" vertex="1"><mxGeometry x="1" width="20" height="20" relative="1" as="geometry"><mxPoint x="-27" y="7" as="offset"/></mxGeometry></mxCell><mxCell id="JMlYKUXQhX_QJ3TKNDeK-82" value="1" style="endArrow=open;html=1;endSize=12;startArrow=diamondThin;startSize=14;startFill=1;edgeStyle=orthogonalEdgeStyle;align=left;verticalAlign=bottom;exitX=0.5;exitY=0;exitDx=0;exitDy=0;entryX=0.461;entryY=1.038;entryDx=0;entryDy=0;entryPerimeter=0;" parent="aK382W0hp0mPZXu5n3Yf-1" source="JMlYKUXQhX_QJ3TKNDeK-78" target="JMlYKUXQhX_QJ3TKNDeK-80" edge="1"><mxGeometry x="-1" y="3" relative="1" as="geometry"><mxPoint x="1020" y="616" as="sourcePoint"/><mxPoint x="1080" y="502" as="targetPoint"/></mxGeometry></mxCell><mxCell id="JMlYKUXQhX_QJ3TKNDeK-83" value="1" style="endArrow=open;html=1;endSize=12;startArrow=diamondThin;startSize=14;startFill=1;edgeStyle=orthogonalEdgeStyle;align=left;verticalAlign=bottom;entryX=0.75;entryY=1;entryDx=0;entryDy=0;exitX=0.75;exitY=0;exitDx=0;exitDy=0;" parent="aK382W0hp0mPZXu5n3Yf-1" source="JMlYKUXQhX_QJ3TKNDeK-77" target="JMlYKUXQhX_QJ3TKNDeK-80" edge="1"><mxGeometry x="-1" y="3" relative="1" as="geometry"><mxPoint x="1370" y="766" as="sourcePoint"/><mxPoint x="1267.98" y="506.028" as="targetPoint"/><Array as="points"><mxPoint x="1330" y="696"/><mxPoint x="1330" y="484"/><mxPoint x="1285" y="484"/></Array></mxGeometry></mxCell><mxCell id="JMlYKUXQhX_QJ3TKNDeK-86" value="Extends" style="endArrow=block;endSize=16;endFill=0;html=1;" parent="aK382W0hp0mPZXu5n3Yf-1" source="JMlYKUXQhX_QJ3TKNDeK-24" edge="1"><mxGeometry width="160" relative="1" as="geometry"><mxPoint x="800" y="666" as="sourcePoint"/><mxPoint x="896" y="730" as="targetPoint"/><Array as="points"><mxPoint x="910" y="770"/></Array></mxGeometry></mxCell><mxCell id="JMlYKUXQhX_QJ3TKNDeK-87" value="Text" style="edgeLabel;html=1;align=center;verticalAlign=middle;resizable=0;points=[];fontSize=5;" parent="JMlYKUXQhX_QJ3TKNDeK-86" vertex="1" connectable="0"><mxGeometry x="-0.3153" y="7" relative="1" as="geometry"><mxPoint as="offset"/></mxGeometry></mxCell><mxCell id="JMlYKUXQhX_QJ3TKNDeK-88" value="Extends" style="endArrow=block;endSize=16;endFill=0;html=1;exitX=0;exitY=0.25;exitDx=0;exitDy=0;entryX=1;entryY=0.5;entryDx=0;entryDy=0;" parent="aK382W0hp0mPZXu5n3Yf-1" source="JMlYKUXQhX_QJ3TKNDeK-24" target="JMlYKUXQhX_QJ3TKNDeK-16" edge="1"><mxGeometry width="160" relative="1" as="geometry"><mxPoint x="986.8421052631579" y="850" as="sourcePoint"/><mxPoint x="830" y="726" as="targetPoint"/><Array as="points"><mxPoint x="900" y="816"/></Array></mxGeometry></mxCell><mxCell id="JMlYKUXQhX_QJ3TKNDeK-89" value="Text" style="edgeLabel;html=1;align=center;verticalAlign=middle;resizable=0;points=[];fontSize=5;" parent="JMlYKUXQhX_QJ3TKNDeK-88" vertex="1" connectable="0"><mxGeometry x="-0.3153" y="7" relative="1" as="geometry"><mxPoint as="offset"/></mxGeometry></mxCell><mxCell id="JMlYKUXQhX_QJ3TKNDeK-92" value="Meta" style="swimlane;fontStyle=0;childLayout=stackLayout;horizontal=1;startSize=26;fillColor=none;horizontalStack=0;resizeParent=1;resizeParentMax=0;resizeLast=0;collapsible=1;marginBottom=0;" parent="aK382W0hp0mPZXu5n3Yf-1" vertex="1"><mxGeometry x="1039.7" y="976" width="240.6" height="90" as="geometry"/></mxCell><mxCell id="JMlYKUXQhX_QJ3TKNDeK-96" value="" style="shape=image;verticalLabelPosition=bottom;labelBackgroundColor=#ffffff;verticalAlign=top;aspect=fixed;imageAspect=0;image=data:image/png,iVBORw0KGgoAAAANSUhEUgAAAcAAAAB4CAYAAABlyyLfAAAgAElEQVR4Ae1dva7dRpIWoFdR4kR6h3kEQ6EjwXCiYB5AyQajUSDBkXJnChRcCFC0m00gGBtcQcAATo0FFpbWfoheVHVXd1X1D8lzSR6eez4BF4fsn+qqr8n6WEWq+0HAPyAABIAAEAACV4jAgyu0GSYDASAABIAAEAggQFwEQAAIAAEgcJUIgACvctphNBAAAkAACIAAcQ0AASAABIDAVSIAArzKaYfRQAAIAAEgAALENQAEgAAQAAJXiQAI8CqnHUYDASAABIAACBDXABAAAkAACFwlAscnwNs34dFPN+HPq5yeAxpdzccf4d3zZ+Hhz7chhNvw8smz8PTDHwdUvK/Srz8v1Tna+fD5x/C1L3bFmimMv4RX370Jn1ccEaKAwDUgAAK8hlley8avN+HH756H98brTznnEJYTzFoKz5OzXL8BAX5+G9YnxmmM/7x5jgfFedONVkAgIwACzFDgYIzAX+H9T4/Djzd/Vc0KgURH/dKFIqW+6nqIglX124QA9UNEG2MC8vPr9vwcAmQoAQQOiMBKBEgpmMfhFWXB8j9fFs8fffc40J92pHLj8lNsqs+yUsrtMz3hNvqGYOVW6VLqn/r5cX1frVM2o3lAY74JnzkiivbYcSNZ5HFzCpfKn4f3N0mn11/YaVG7bG9wfV9/aWqwe2GV+pzW4OuHF+Hhk2f1H6dLU38iDNXGkOe3j+Gpqovt3oZfU1ciLt2Xjkv6NUVpqX8pp84polKybX3fNmOTtqOpK+lX9JUUsehcxiRd34Z3Ca+nH25jWvnJi/DuW1+XqoavR6RCK1xQAAQ6CKxEgPHp85F21uZm9NGDJUciQCaL1N+kc4TARLZJw3m5iTykLZOjT9kJEr6v1UlatX+FdMXZ2L5/3rxRaUI9TtKPCDGRJ5Eu25t0Ziyy/rpvW5O9SuUh5ZTx+hHWbXipSYTJUAgjklQmCa5ThNBoG99Dkoaub3o3KeTKxKnG7evXt5aJUMnILUmv5rvBkU6JrEke2/UskK7L9YrXS3mYylrhAAgAgQYCqxFgMIQX2KnniIrqchQUtaicvq7XsqrIQ5ECk6OQULJO903RYdZDAzChk25aHxPhWWIdEUSxVTkopWepJ7nOnsr+Whsu+eu38P0Pn8ID//fL750OS4qV3ku6pbbzHTkRQSI5jqgU4U2QGBOSEA/1leOkQyYsliskGyvn61eMz/JKUTzqEeBIJ7Yt2ar6n6LX6Dr0quIcCFw7AusRYErdxadPcpiKICSKU6lIHfENb9oGAeT2jTpPxPE8RZiaXCZ0Gl8YEwTI5CZj6uhWEUmLAFv9CDP9cDBWbKNaG+EuHWTkyKlOUoLxV0gvRkU2AizExQSU04suukpRlJWbvlQ9FwGOdFqRAMvD1NJZQnsgcH0IrEiAMerjNCg5cu20W0SlsM6EpsryYdVXkQiTWCNi0kSXBSX9pK6SqxpOHo4IMJKFjjqLU1K6dwnQ2TOpS2pwgRGgJTGyQ0WAjfd0ksJkiz2h6IhPRVEVfOckQK2jUUzZrXQfPTiY7upkeC+pdjgEAkAgrLwdUiI++mDFvoeoSUGDP7xpPVEZ0vNyI8Fo8tHjhGFf03LiZJoAs/0S1fF7vQkClA9g8jvACTV2rB7O0YQeTHQN5+/LYzRYpwJr8THiM4RoGrnosVEnfSMJ649nTOPuCfdrvQNkgpUoVnef0qm2ezkBqutLD41jIAAEmgisGgHSCOQoH0mUZYaMZJW/jFRfPg6dK5OWTif6CMnJ1eRR9VVpWdbN9VU6GdWrkxEBSqQpOr8J7+kL1lkESANFJ6Zx6hJ6pdeGBebhYek4kbBySjITRyQFKX/64WN5B9iIAKmdEJd8LCJ9+deQrJXd7fvzbSAyy6nWoWnODvmKNNsTOwupRt1K2tZ/BVp0Il1XIECVVRiagUogAAQYgdUJELjeVwQmouu1zVapwCya055EKK0IMJbNI7Is8V4dDB8k75WlMAYIrIMACHAdHK9DCkcYPorexnSOokxEF/9bQPwvBjG6y9EgqcCpRxUhbqPWYaXye2b93v2wmkIxIHAcBECAjbmIaVxJYfpfn4JtCLikoq//Dv/827/C3zt//7z5P2sNpUJ3cbSNdKMmRI4G7RekhhCt1vf8jFLy9+y6vOczBvOOgQAI8BjzAC2AABAAAkBgZwRAgDsDjuGAABAAAkDgGAiAAI8xD9ACCAABIAAEdkYABLgz4BgOCAABIAAEjoEACPAY8wAtgAAQAAJAYGcEQIA7A47hgAAQAAJA4BgIgACPMQ/QAggAASAABHZGAAS4M+AYDggAASAABI6BAAjwGPMALYAAEAACQGBnBI5PgLutPLIz8nsPJ7tS8J6M+60aolfVOcSi3h736vpKK9DwAtdxybVLW1908S4SaRm5h25Rbw/Vbue8yk9cHDwuLK4XFHebbe+mFAa6jwiAAO/jrI5sOtOOAYdcqLm5tuk0AS4mmNF8bFC3WL8RAbYWJd9AZyNyggBDiLu45C3HTGecAIH5CIAA52N1P1qCANM89ne3KAQSydCvMVrqj3lJrKrfOQiQCTlFfb3xz3QdH3PGodWpCKxEgK0nMl8Wz2WfO50Ok+iAV7TnFN3jsqFuSlHRJrutvvI0KHXVQs3UP8mkXz2u72vrRpCSLW/CZ74J02LZZoFot6dfrqPy5+H9TdLp9Ze0f6Ky1+8HqPc3HKnET8UjnVLnluOo0oBkX9n1YTg/JNZh3HoyFxlDE/asrGyeHtzu86cW4lapQ9vGbYwrkZbsI8i/Jb1HxBX3ECy/Of3KUZGUO7mNvRNzvwmz9JimT1NXGr/o6/c3LP0pdfw2vPvwgu15+uE2vHtOfZXexp7lGxKTWYe7piawRvXxEFiJANNGuNpZG0frn7YtOdKFzCSV+putXcS5imyWK87Zy03EI22ZFKStB9/3tTr51vY8ti0b/9q+f968Ce+/Sg89TtKPCDGRJ5Eu25t0Ziyy/rqvyOv9ep06fc28JFkVGZCsgttwfgjjrK+QYf2O8WjO6i76dCOsbx/Dyw9/5AmyWzrFaDKTBBOAJwQhF52Gla2eem3TNlGKhLv6Zc3qg26fXgSWSDfbE/QWVfGY3ykmoqMouoxB9cqeWp15JdV1O68bWgEBQWA1AgzOsZJTzxEV1eUoKA5dOX1dr2VVF7ly7EyOztnqvuldQdZDrKbfCZ100/rYEgTVjxxqsTXqzhGS0rPUk1xnT2V/rU0sqXUqclUfNW4urcawspgAe/OThciB7SulI3ykjfn967fw/Q+fwgP/98vvptlpJ2oeThBQHPlEZ53K42Pt9DVh1CSmyZOOC9HQmCo1q8dI6szWT6nf7dMjQBpXb09FtxRFfPnjoWSr6l/GiLZbm5Qycw9b1/LcvmgHBEII6xFgSt3F9Bc5mBJB+BRZTkmqqKdJUjRFlXNWZNOo80Qcz2VPP0Uu1FelRvOxjma6l0jt5I2D5xtTxtTRrXK86ubNRNXqRzpq8lmgE8v1fdW4WVSFo7XP2JY7lQMmSIOlmvvUbEpGkbbHEdmn087LxiyO3PdLkVszxemcPkdGEvEl8sjpRRst0ng+NUrn/G7yXASYIrtKr1kEKFGt2FVw8IiOz+11Om6LWiBQI7AiAcbPkx8RgZCT1Y63crBWkaFzrPoqEmESU6RGYltlaTgmBImwKrlWp/FZfeMVG6Jz1YSeCU4/JCgiyvWqbDx+q7bWKcvVzVtjVFhYWcU2LSgeG0y5yPaVHiMZ0sb8XmAEyESloyJDTjU5mo9rPKEoOX3CFSKxBDJsb0AuJ90+KoIrrSnl8TY8VDqaOk6HjiJA25ojx0z+tm541rqWhx1QCQQsAqsSoBAffbBiP4SoSUGrMXSO3jkbgvNyIzlq8tHjWHL0fU3LiZPayRcbotxsP9+kjwM/GEwRoHwAMysK9So6ndK4WQ9p3nIaBtOI4SP3DrCHKROgetghHHRfGbbgIyXn/b2LPjo9qa1gAszv4oTwEjkNCSO2NYSoBTM56vSprrSp1Egmyz8q6RIgk3hrbBfRapUWEiCT6SkE6H2D0QEnQGAagXUJML0LKx+HaAUiMeRUo0pBDZ0RO2edTnQRX3rPl+Vq8qj6+tRcXyeteX3syMa9A4xRkej8JrynL1hZLxW9KiKykZoQkPT3X67W2sSSsS1WJ5FdsIzEFctf3Vr7hvPj8P/x5kZ9QFPrRPPUI9OeZZuUG9JfOoKQW0rhCekxWUha71l4+eFjeJodu+uT0qSZ9JjkSl9OLeoIq6pXUZ+u+/mW38XNe78WScynMX1fIdXYTo2bPnzR/aM9JHcQAWp9GYcWwU7Pyfi6nO6PFkBgdQIEpOdCwJLWubS4nHEnsgVrG0JOXxMayWciIEJpRYCxzJPR2mpdrDz1AHmxNkDxsyMAAjz7FKylAAhwMZLsRH1WYLGUWR1aaVNOmTIp2jQmC0zRZI4QZ41yLY1iZqFK71+L+bBzNQRAgA0odTowp1bzV44lbdjoulnRtE4gQAL/282n8Pe//avz9yn8V/7/mWmqdnuP1EiB6oiwSgumrzw3u6IuVzCl8w+RRr9cCKF5QgAEiEsBCAABIAAErhIBEOBVTjuMBgJAAAgAARAgrgEgAASAABC4SgRAgFc57TAaCAABIAAEQIC4BoAAEAACQOAqEQABXuW0w2ggAASAABAAAeIaAAJAAAgAgatEAAR4ldMOo4EAEAACQAAEiGsACAABIAAErhKBiydAs8izXgh7cjrvtnKKXpllv1Up0moiec+15av+T8JyYgNZMHnZ0l1qRwEs/XUi8ugGBIDAqQhcPAGK4XZHBSkd/d6NAEXyvivSTxFgrF9GQmLJ3X5HBNjdaiftJsALPoMA7zYB6A0EgMBiBECAfm3IhRDuS4AhFDJpkV2rbKFBGzQvOnvhWl+1hY5vhnMgAASAwAYIrEqAJh2pNlQNvGfcm/CZV99Pe9HlTVRpWxpakT+u8B4Xn16+4HQ3AnR7ApYV5FMEeHsTfpSFrrNOEWlrT1unvQmwdw3wzgJpjzm9P5veTkeitFjv9mBze9nZvd9iqlLLfSj7vZk94axMO57a6072z+sZg3IgAASAwA4IrEeAX2/Cq5u/sspMHplQhNyERPRebLIBbNmWht+vLXqfF0KbAL+EV1qO2QR1pFMIdvf4JD/bk80MRyHAqJGOqIqOfPTtY3j54Y9cyOSUdyOI/TJZ8s4EhcyYXIW0uqnKfgTXjwCzOjgAAkAACOyOwHoE6FU3G1amaEulGwthRQIskVkinwbZ+CH0eZGnS/2x1kMfx3aatInYjE4cxRaSFslLCfDrf/53ePDDp+rvH/8WiXf5HRCgF8tElnb35uNCeCFFdWV3b701jyPLLBcEmKHAARAAAheBwIoEKJFcSnFyWlEivhHZdAjwO+k7D8ceAXI0KSlO/hUSq3XiqI+Jt2UL2SV9i05LCbD03OJoRICxzqYxEwHqj1FIrbxTOZ2kfiYC1GQpdoAABQn8AgEgcBkIrEaATDQ6ajtABMikaIhUk54+jpNVSLRByp35XEqA54oAOY2ZU560c+zH8PSJEGBNjvpLUv9+MadKDSYgQAMHToAAEDg8AusSYH7fJhGURHGObNLHMDHF6MmG2j5evONzIa+COZcpUo7RoERxTidOcZa0Z02eRa4+WkqAuu8Wx+Z9nRrAlgvhJQKkiE+To+pniVJX+OM+Adr3jb4fzoEAEAAC50FgNQIM+gvP7x6HVzf0daUmQJ0aLUQTgpBlqZ//H8vrvvwVaSbiSKbxy1Ii1ZvwKqcxbR21se/80ocvOn2aybTuS/3n673lZBMRlS8uc7SWPl6RFOjLD+MIkNpJFOgjQKrLcjldWsaL8n2KVAg3tZN06pYwQDYQAAJAYAKB9QhwOJCPtnRjHwHqOhzvgkArApT3gCZVmrSpPprZRUsMAgSAABBYFQEQ4KpwXqawVoqSoz5KiwoRKtPi/++T94eqAodAAAgAgQtC4NAEGN/DldSopDLjr7zLuyC0D6uqS1FSClW9E6xToCC/w04lFAMCQGA2AjsR4Gx90BAIAAEgAASAwC4IgAB3gRmDAAEgAASAwNEQAAEebUagDxAAAkAACOyCAAhwF5gxCBAAAkAACBwNARDg0WYE+gABIAAEgMAuCIAAd4EZgwABIAAEgMDREAABHm1GoA8QAAJAAAjsggAIcBeYMQgQAAJAAAgcDQEQ4NFmBPoAASAABIDALgisToB2x4XTbDjaDgunWXFKrwtdF9UvhH5rbY/XRFrRJy8oTm3iwt28sHZarFsW4LYScLYVAnpZu7z83SqDnTq3cVWiWddBWoh9VttVbBoLiViWReR7rQnnvJj81D1g7q169Stzb+VNAHojo9wjcOUEeCbC4YtadsrQU3ImfbQKpxx37YnC+g80pzrJU5S0fawTsnV3OmstLD5X4F36zh3DtQMBakAWkK/ulo43IcA8zmhDgbRzDQgwozX3YHUCnDvwqF3fYY56nVJ3JsLpEsaZ9DkFOt2na09s1J9P7XCIDP02SnqQdY9BgAlPRbrswFfbqurUudX91p3zaWn7jG2vPT3m6B4AAU7P3/IW6xEgO0FZuNpHNzR5b8Jn3cakwqLj14tdm731bt+EUqfSAEmebhtTAn78GpjYTvQtv7UsqVPjkjhtS94zUMZ19uQnM8JB5OlfkS0EqNuJzGiDXSBc10nfEIptIre2f9USxkLrYqX3CdC2a53JU3Xex/BzaUWORMofavIkp/7zbdB9JeWky0rfZ9w+S6b+eU9FTcrkrOg8Rq6xTVoY3O23WPrPWDh82Dc6SNE/6qjLBjqJQV17pMH+v34eShoz2vbycwNjUtPYEue/9KUGup9ONYqNtl4WfbfXUrmuLO4iw/9qmfp6kXbRpnJNtPSStr1fEGAPmbuUr0eAokXTGYpDFycZz2UDWnbYmSSiA89ExPKUI2cyFDl0vRM5pnpfJzp1fwtp+CZ+N3m7Q3zsl3XUOtA9+vpxeJTtcW1poCZGVBHbZnvSuR2n2G51lL5lY16rh7dwxfOuPXGMUwkwOsk2gXCd2rHCtBUnKdEMn1s59ilcYeH3OjR9xZGJk4vnxklSe6WXkjx92OnrbQ1GR69TCOzMxXbTVgjEYjGt2MotDKaik8VUP9AYe4wqkXgKAfr58PXx3MyXkRf7F3mmcsYJyRc7SnOvf/faK10aRyDABih3LtqRABWJJZJgx95wntphkpPPBMDmRkcv5ElFTASvb8L7n+pd3ccI1bJie0vQsUy19aQcdHs6LiTFfYkgdcTbsLkaIxYk277wGeGi7Q48ruCaCDATb3o40OMmmdXPX7+F73/4FB74v19+r5o2C7r2xNZ6Ppv9m4XeeelGrTrlvCoiqR1TzwkR2VgHqeQGfRz1YXISsqGiamyt98Rxt6/V345Z66R1GNszoc8m1VFfi3Ek7VjWsedJi7TddUBk7x4+NFZ87OqtiY2xbYOJMztP3JgfQKzuvWtvLBwEOMbntNrDEyA5z5L+LMeWCBrOfxYeitRM+9bFpttGwsvErCNPJoOiZ9ZdE1GXMPQYUaFI7kSAycYqhWoJ0OJijNrupGtPHPIkAvSRi9G+4Wg0OVVEUrfvOSEq16kqOY5RQe0gtYNlFauxjeLjk0Hfoi/poKOMWqeYJoxOd2zPWJ1tahv6hgkCbJBI1M0RIOGXU9dqHtMDCmOhH1YqA9u6Vc26BfV1FqN1EGAXsjNXXAQBZqLpgBUd7BeOAKfaWhE14cT6SHCWTHRZTUa57QQZsPxum1ofT4B5HGtIJsh+fdWhFBw2AtSOvqgr73lsqko5w4pIasdUCEXL1Y7Ylsez2kHuRYA5qquinFqn3NYQS8uec5RFfW0EqMvG9liN1ZxTRTXvtnU1V7Y6BP0QVdXNKaivMxDgHNzO1+b8BGjShymd+V15j2Xe8bVwqqIviYhajesyjjB12jA14XIVtTERyblPaRqxiRwbMkszTaalVKI8TWKFAAUbl17N3WvyzFVbH3QJPQ58UgSYnHfvfRo/zat0lklvVY6wdkymvcaHo4ge8dbOuXKqw8hVD9Q4HvZNJPH8RbDE73WKpJAJZmhPQ4eqSB72lt1XlRhVwJjplCbrKFGStyfZ/eEPJUEOHQHq/1MnTfQv4zv+f3rTUaIW6I/r68w/rEXb8RGMR+5c56sRIDvqKj0nzpocvr2BjFNkEktpw9df+L2XieR0PY+R5KZyTRhMXG6sMbiRjCRVqceNsiSdKbaQNHEKUhd/ix51vZbL+hibBJuaxDQBUr8KZyHlpFPRYWz1qrUbESDpyA5JpbW087d14kBbkUDLMUXHmlNmOjXGDlml0LKz9s45xC9NdV/6xunDC5WKU3rNAH3UtyIOlufseNJwrl17Ziikrrk1ry1rp37gmGFPVtsTIFXEsjyvTxzhJRLM9eohKoq1/fODRB6zcVDhS9eOsknXp6+TZ8k1Q9U+VFd7P6HrcNxHYDUC7A9xD2uIvDLxJPuY0DRJ3kO7eyZtSIC9Ia+xnEnDke3d03YzkORrWx7SZrTfrUnrwWa3wXceCAS4BeAgwBNQ5actR4AcLbqyE0RfZhcQ4Pbz1k2P1lHpespIduSI5CeR9rIIez1s9pYEAtwC8XtLgFWq0KRn73pD1ynOKiLcYraOKpMJsKSDfarMpJKv8SHBp91USpdSccN0mOqr07/lUtiSAMsoRzmyaW+VZtxMQZsSzalTmcMqIl9ZEXNv1X7L3FvD7w5W1uueiLu3BHhP5gdmAAEgAASAwEYIgAA3AhZigQAQAAJA4NgIgACPPT/QDggAASAABDZCAAS4EbAQCwSAABAAAsdGAAR47PmBdkAACAABILARAiDAjYCFWCAABIAAEDg2AiDAY88PtAMCQAAIAIGNEAABbgQsxAIBIAAEgMCxEQABHnt+oB0QAAJAAAhshMCBCDAtu3SNK4XMnNxLXfDWrFbh57e5KHgERC/+zCuAVAsXzwQOzU5EIK6CwivVpBVp2qvRLBWfFrzmVVTUGHPE0MLSs66DtILL1iu1zNGZ2yR9pnR39m12D/AC3XElHT3GbHNObKjHat3Txle4lW3M6l7ej5yoDwhwBFxr0etR+5Xq6CKodo+QVfndRbHSkJuK6dnDgw4wnrpZNlOanf0Wa0zeYdmyzXQaoajICQTIO5MMl60bQSm7VFwKAW50vc29p4cP+wOfMZyCRuWBCLCh3bmLVgR6iSk9whheFEsG2Lltzx5WY4SxehrmG2evp/mNbv477dywmU6ji0ETNpHhemtv0tN/JBM9xkiXVKeuiRmtV21SdF5VrBXm7VPnq94D+npSY2RldH0uXOFAjTWyZ+jrRj5joYqrEWClsNkhgNKbb8JnvbCrCmG5ryxW3YpwyGCp1/sBNvbAq/QwfevFZJt4aT2b49KmbzfhR11n9JZV9MsC0Y/0HoUdnQwODdliGxGK4GEXnrbjmihSLhqtt9G5icQqhScT4OToKa0kCxOrp+v4pFn29CupO3K45Mh1X4n2dFnpa/Z2S7uG50WRFSnTmOTUObWTdJJxdVnuO7UQNts/oRM5lLxfYQJMl9Fx2oNOxrVRjJVv6yYnYKMGVieT8kwO9Fe152LR2fWjOVDzQ8ra60LmvZhh6+Negr5McPSyixR7ZPo7fWqdns1M8dox1jtrYMjXsn74iQ8tGQd135EerWu9zNE8TcXXNVuLL2tWLivckQDJact+edFRW+edNnv1TpkdtiIuPhc5ExvI+r5MPNJ3BlBdoL3+8VwIhwlK7EiEk22doVOPMIQgZRw+zw8SEQupC8HpyLarOfB6zIDj1CY9e1heF+Op0eKN2ryxNAGQGD6XG1huXntu5Ayefvnmzk4sypK+4ujMuXEOsb2Q4pSFpr6rU8RByzQ6su2KCFhOz/ZaltFhlxOLqUTNmWyG9lgFDQ5U5a4Lni81P3H+alIUqSRP5lbKlvyy/HztpJ5OJ9ZR6bRE/qptu9cbPUS8De++yWhuvow9sS7PnXSZ8XsPCVCRGF2LjfdcLaOrduy4hcTGBEjyCiEQ6nX74Vx0nLMlniQht3XEk8YUPeboVNmchqjw0VjQcSbD2MG0ZwLUczAXi9/DP374FB74v//4LXwdglcqe/Zwi4xbaT/nyDuv0sfdkKmiOK9Yrwmjckzdm58IwjlIuuGTw5qWU49d9J446uqUoprsWElHIbjk9I1DVTqQTFPnZU3otEW1caBpAG27wjvWtueb6jwB0rme97h7vGA1Tf7lGjrN8Or6SNkEo1Nl32lj3bmXxnxCmLbLY8517hqbEMfVxnf5Dif6DC+GzneMALXz3YcAyfFKqlD/5mishYgu6wDdnJzcNhLLIxMBFtvn6NQjjGpcTYA0vk6byrHokfXTBu5z3LOHRz9RL3+jFUuUgy+F6gOGul7fwNyld/NzuU6NpuMzE2DQ+pIDzWTYJ0COZJhsGvbo/grDXQ5bBODtcw61R0z2GonzntN2kjaXhwUeQ8iwbWlvnHbrurS6zi6VAFv3Qbpm2Mb8kNh/OKnRsSWVr9PVJ/oMLUKO7z0BSuQlBi/67QDNk9OKtlKZJzmtw5AMknK9NtVF4QnQ6WRs7dhi2jRPDhwBNh1166bTZfFYP3VXjkk7XI1Jrzy1mZZTj63FD4+HYxe55KS1bXVKrbSt64Ya7FPJpNyIssWpVgSp7HEatgjQYGPau8jZ1MUTECDhECNlnQo2171/qHIPKw1Ym0WVr9OtTvZlWkg8XpcAswOOaUD7zq9EQTR0y8m3jLZk4+XGaCsTDAFDkY+OevTHJ7X94xImGKs3d+Dyx6FEkirtqUmpJZ11bMhUba3NpaLCx4wVdchYlG7xaMWLxoueOm/Nde5zql7pKbTl0OxTaIqCxIE2nrrNDcyK9dJh0dmaCCsb0kgfNkjLOmXVefKwp68Zna8AAAMuSURBVFPqyMTwokppepKz2NTObFIN38Dfc75+8bnXKWKeHa4nQHa4jjDTmB5ra3utGLcfOGzuP6ivJdqS+jpzadp0TUtK3fbunaWM0138XFN073pz5aIzP4z2H0aaQwwKK1+n257qM7SMdLwaAcr7tZiGex7e39JXkvKujpyzdfrFKcoEunSlkFh6h9aW677G/OkmfL55XgiQjJQbVFKCWacGGo0inohW30SCknbUxEO2Sbn86vppnRwmCYvqojAESMrLA0IZP5P0ihdNA6ZhUZnrRrO76CU3n6SzlHOKzk7Sezq1Vd+kLcfExCFyJU3G6icSzHXlw4hKToMA5QlaUnHZsTegqYrM07W2iVp64ki9TR/Cw5NF7Cf60G/roaLSJRekay4//OaKOxw4nXSkP2lPGdYTINXY66L+4pL7qLm1WLi513qVYd2R6yOyc19t69vwK10z6jp2wpqn4qPyvd5sdUKhwbpcbxbDt+EdfZEr9pg+9hXBEg0qX6c738VnaDlrvgN0crc7rZz+dkOdJLmlH5fZB4CTZF9op80I8ELx2EZtcqTFSeUxyCEtdKi576yD9LCWH1hnddqlEZHZogeMXbTaYBB+yD+Cf6kfLuUr3qXzAALsXSctgum1PUc5X4wS+UYF4hOaLTuHaucaEwS4PfKtaIdH3ZAAJfLIrxy2N3P+CCk7YCO4+d0vo6VkfI5AfoRYjGYN5ifOAwiwdwWuQYAso6QJJU0pvyZd2dNjUF6nQK+X/Agmg4dPlfEDg8zFUW7kweRuUOXTbjodWacsrQK5by/K25AArSYHOHPpt6VRxykW2HSgpNzltxGRnzLIJfVxc7A0pW58hcsq5AcueiXl/ciJGK34DvBEDdANCAABIAAEgMAZEAABngF0DAkEgAAQAALnRwAEeP45gAZAAAgAASBwBgRAgGcAHUMCASAABIDA+RF48D//+y3gDxjgGsA1gGsA18C1XQOIAM//EAINgAAQAAJA4AwIgADPADqGBAJAAAgAgfMjAAI8/xxAAyAABIAAEDgDAiDAM4COIYEAEAACQOD8CIAAzz8H0AAIAAEgAATOgMD/A2c0owEscXjEAAAAAElFTkSuQmCC;" parent="JMlYKUXQhX_QJ3TKNDeK-92" vertex="1"><mxGeometry y="26" width="240.6" height="64" as="geometry"/></mxCell><mxCell id="JMlYKUXQhX_QJ3TKNDeK-97" value="Use" style="endArrow=open;endSize=12;dashed=1;html=1;exitX=0.5;exitY=1;exitDx=0;exitDy=0;entryX=0.5;entryY=0;entryDx=0;entryDy=0;" parent="aK382W0hp0mPZXu5n3Yf-1" source="JMlYKUXQhX_QJ3TKNDeK-24" target="JMlYKUXQhX_QJ3TKNDeK-92" edge="1"><mxGeometry width="160" relative="1" as="geometry"><mxPoint x="900" y="706" as="sourcePoint"/><mxPoint x="625" y="996" as="targetPoint"/></mxGeometry></mxCell><mxCell id="JMlYKUXQhX_QJ3TKNDeK-98" value="&lt;h1 style=&quot;font-family: &amp;#34;roboto&amp;#34; , &amp;#34;corbel&amp;#34; , &amp;#34;avenir&amp;#34; , &amp;#34;lucida grande&amp;#34; , &amp;#34;lucida sans&amp;#34; , sans-serif ; font-weight: 400 ; font-size: 15px ; color: rgb(12 , 60 , 38) ; letter-spacing: -1px ; line-height: 1.1em ; margin: 0.6em 0px ; background-color: rgb(255 , 255 , 255)&quot;&gt;django.model&lt;/h1&gt;" style="html=1;dropTarget=0;fontSize=5;" parent="aK382W0hp0mPZXu5n3Yf-1" vertex="1"><mxGeometry x="415" y="43" width="180" height="106" as="geometry"/></mxCell><mxCell id="JMlYKUXQhX_QJ3TKNDeK-99" value="" style="shape=module;jettyWidth=8;jettyHeight=4;" parent="JMlYKUXQhX_QJ3TKNDeK-98" vertex="1"><mxGeometry x="1" width="20" height="20" relative="1" as="geometry"><mxPoint x="-27" y="7" as="offset"/></mxGeometry></mxCell><mxCell id="JMlYKUXQhX_QJ3TKNDeK-101" value="&lt;p style=&quot;margin: 0px ; margin-top: 4px ; text-align: center&quot;&gt;&lt;b&gt;{abstract}&lt;/b&gt;&lt;/p&gt;&lt;p style=&quot;margin: 0px ; margin-top: 4px ; text-align: center&quot;&gt;&lt;b&gt;TagBase&lt;/b&gt;&lt;/p&gt;&lt;hr size=&quot;1&quot;&gt;&lt;p style=&quot;margin: 0px ; margin-left: 4px&quot;&gt;name:model.charField&lt;/p&gt;&lt;p style=&quot;margin: 0px ; margin-left: 4px&quot;&gt;slug:model.SlugField&lt;/p&gt;&lt;hr size=&quot;1&quot;&gt;&lt;p style=&quot;margin: 0px ; margin-left: 4px&quot;&gt;+ __str__(self)&lt;/p&gt;&lt;p style=&quot;margin: 0px ; margin-left: 4px&quot;&gt;+ __gt__(slef, other)&lt;/p&gt;&lt;p style=&quot;margin: 0px ; margin-left: 4px&quot;&gt;+__lt__(self,other)&lt;br&gt;+ save():&amp;nbsp;&lt;/p&gt;&lt;p style=&quot;margin: 0px ; margin-left: 4px&quot;&gt;+ slugify(self,tag,i=None)&lt;/p&gt;&lt;p style=&quot;margin: 0px ; margin-left: 4px&quot;&gt;&lt;br&gt;&lt;/p&gt;" style="verticalAlign=top;align=left;overflow=fill;fontSize=12;fontFamily=Helvetica;html=1;" parent="aK382W0hp0mPZXu5n3Yf-1" vertex="1"><mxGeometry x="470" y="426" width="160" height="170" as="geometry"/></mxCell><mxCell id="JMlYKUXQhX_QJ3TKNDeK-103" value="Extends" style="endArrow=block;endSize=16;endFill=0;html=1;exitX=0.25;exitY=0;exitDx=0;exitDy=0;entryX=0.317;entryY=0.991;entryDx=0;entryDy=0;entryPerimeter=0;" parent="aK382W0hp0mPZXu5n3Yf-1" source="JMlYKUXQhX_QJ3TKNDeK-101" target="JMlYKUXQhX_QJ3TKNDeK-98" edge="1"><mxGeometry width="160" relative="1" as="geometry"><mxPoint x="610" y="522" as="sourcePoint"/><mxPoint x="600" y="292" as="targetPoint"/><Array as="points"><mxPoint x="470" y="256"/></Array></mxGeometry></mxCell><mxCell id="JMlYKUXQhX_QJ3TKNDeK-107" value="&lt;h1 style=&quot;font-family: &amp;#34;roboto&amp;#34; , &amp;#34;corbel&amp;#34; , &amp;#34;avenir&amp;#34; , &amp;#34;lucida grande&amp;#34; , &amp;#34;lucida sans&amp;#34; , sans-serif ; font-weight: 400 ; font-size: 15px ; color: rgb(12 , 60 , 38) ; letter-spacing: -1px ; line-height: 1.1em ; margin: 0.6em 0px ; background-color: rgb(255 , 255 , 255)&quot;&gt;django.util&lt;/h1&gt;" style="html=1;dropTarget=0;fontSize=5;" parent="aK382W0hp0mPZXu5n3Yf-1" vertex="1"><mxGeometry x="670" y="40" width="180" height="106" as="geometry"/></mxCell><mxCell id="JMlYKUXQhX_QJ3TKNDeK-108" value="" style="shape=module;jettyWidth=8;jettyHeight=4;" parent="JMlYKUXQhX_QJ3TKNDeK-107" vertex="1"><mxGeometry x="1" width="20" height="20" relative="1" as="geometry"><mxPoint x="-27" y="7" as="offset"/></mxGeometry></mxCell><mxCell id="JMlYKUXQhX_QJ3TKNDeK-109" value="1" style="endArrow=open;html=1;endSize=12;startArrow=diamondThin;startSize=14;startFill=1;edgeStyle=orthogonalEdgeStyle;align=left;verticalAlign=bottom;exitX=0.938;exitY=-0.012;exitDx=0;exitDy=0;exitPerimeter=0;entryX=0.25;entryY=1;entryDx=0;entryDy=0;" parent="aK382W0hp0mPZXu5n3Yf-1" source="JMlYKUXQhX_QJ3TKNDeK-101" target="JMlYKUXQhX_QJ3TKNDeK-107" edge="1"><mxGeometry x="-1" y="3" relative="1" as="geometry"><mxPoint x="600" y="436" as="sourcePoint"/><mxPoint x="760" y="296" as="targetPoint"/><Array as="points"><mxPoint x="620" y="376"/><mxPoint x="668" y="376"/><mxPoint x="668" y="286"/><mxPoint x="715" y="286"/></Array></mxGeometry></mxCell><mxCell id="JMlYKUXQhX_QJ3TKNDeK-111" value="text." style="edgeLabel;html=1;align=center;verticalAlign=middle;resizable=0;points=[];fontSize=5;" parent="JMlYKUXQhX_QJ3TKNDeK-109" vertex="1" connectable="0"><mxGeometry x="0.2009" y="-1" relative="1" as="geometry"><mxPoint as="offset"/></mxGeometry></mxCell><mxCell id="JMlYKUXQhX_QJ3TKNDeK-112" value="&lt;span style=&quot;font-size: 10px&quot;&gt;.text import slugify&lt;/span&gt;" style="edgeLabel;html=1;align=center;verticalAlign=middle;resizable=0;points=[];fontSize=5;fontStyle=3;fontColor=#009900;" parent="JMlYKUXQhX_QJ3TKNDeK-109" vertex="1" connectable="0"><mxGeometry x="0.1919" relative="1" as="geometry"><mxPoint as="offset"/></mxGeometry></mxCell><mxCell id="JMlYKUXQhX_QJ3TKNDeK-116" value="1" style="endArrow=open;html=1;endSize=12;startArrow=diamondThin;startSize=14;startFill=1;edgeStyle=orthogonalEdgeStyle;align=left;verticalAlign=bottom;fontSize=5;exitX=0.384;exitY=0.011;exitDx=0;exitDy=0;exitPerimeter=0;entryX=0.603;entryY=1;entryDx=0;entryDy=0;entryPerimeter=0;" parent="aK382W0hp0mPZXu5n3Yf-1" target="JMlYKUXQhX_QJ3TKNDeK-107" edge="1"><mxGeometry x="-1" y="3" relative="1" as="geometry"><mxPoint x="809.9300000000002" y="356.004" as="sourcePoint"/><mxPoint x="778.57" y="224.42000000000002" as="targetPoint"/><Array as="points"><mxPoint x="810" y="316"/><mxPoint x="800" y="316"/><mxPoint x="800" y="266"/><mxPoint x="779" y="266"/></Array></mxGeometry></mxCell><mxCell id="JMlYKUXQhX_QJ3TKNDeK-117" value=".translation import gettext" style="edgeLabel;html=1;align=center;verticalAlign=middle;resizable=0;points=[];fontSize=9;fontStyle=3;fontColor=#009900;" parent="JMlYKUXQhX_QJ3TKNDeK-116" vertex="1" connectable="0"><mxGeometry x="0.1534" y="-4" relative="1" as="geometry"><mxPoint x="6" as="offset"/></mxGeometry></mxCell><mxCell id="JMlYKUXQhX_QJ3TKNDeK-118" value="&lt;span class=&quot;pl-k&quot; style=&quot;box-sizing: border-box ; font-family: , &amp;quot;consolas&amp;quot; , &amp;quot;liberation mono&amp;quot; , &amp;quot;menlo&amp;quot; , monospace ; font-size: 12px ; background-color: rgb(255 , 255 , 255)&quot;&gt;import&lt;/span&gt;&lt;span style=&quot;color: rgb(36 , 41 , 46) ; font-family: , &amp;quot;consolas&amp;quot; , &amp;quot;liberation mono&amp;quot; , &amp;quot;menlo&amp;quot; , monospace ; font-size: 12px ; background-color: rgb(255 , 255 , 255)&quot;&gt; &lt;/span&gt;&lt;span class=&quot;pl-s1&quot; style=&quot;box-sizing: border-box ; color: rgb(36 , 41 , 46) ; font-family: , &amp;quot;consolas&amp;quot; , &amp;quot;liberation mono&amp;quot; , &amp;quot;menlo&amp;quot; , monospace ; font-size: 12px ; background-color: rgb(255 , 255 , 255)&quot;&gt;gettext_lazy&lt;/span&gt;&lt;span style=&quot;color: rgb(36 , 41 , 46) ; font-family: , &amp;quot;consolas&amp;quot; , &amp;quot;liberation mono&amp;quot; , &amp;quot;menlo&amp;quot; , monospace ; font-size: 12px ; background-color: rgb(255 , 255 , 255)&quot;&gt; &lt;/span&gt;&lt;span class=&quot;pl-k&quot; style=&quot;box-sizing: border-box ; font-family: , &amp;quot;consolas&amp;quot; , &amp;quot;liberation mono&amp;quot; , &amp;quot;menlo&amp;quot; , monospace ; font-size: 12px ; background-color: rgb(255 , 255 , 255)&quot;&gt;as&lt;/span&gt;&lt;span style=&quot;color: rgb(36 , 41 , 46) ; font-family: , &amp;quot;consolas&amp;quot; , &amp;quot;liberation mono&amp;quot; , &amp;quot;menlo&amp;quot; , monospace ; font-size: 12px ; background-color: rgb(255 , 255 , 255)&quot;&gt; &lt;/span&gt;&lt;span class=&quot;pl-s1&quot; style=&quot;box-sizing: border-box ; color: rgb(36 , 41 , 46) ; font-family: , &amp;quot;consolas&amp;quot; , &amp;quot;liberation mono&amp;quot; , &amp;quot;menlo&amp;quot; , monospace ; font-size: 12px ; background-color: rgb(255 , 255 , 255)&quot;&gt;_&lt;/span&gt;" style="text;html=1;align=center;verticalAlign=middle;resizable=0;points=[];autosize=1;strokeColor=none;fontSize=9;fontColor=#009900;fontStyle=1" parent="aK382W0hp0mPZXu5n3Yf-1" vertex="1"><mxGeometry x="685" y="86" width="150" height="20" as="geometry"/></mxCell><mxCell id="2GtJDSl1WaIPW1Jj03nr-0" value="1" style="endArrow=open;html=1;endSize=12;startArrow=diamondThin;startSize=14;startFill=1;edgeStyle=orthogonalEdgeStyle;align=left;verticalAlign=bottom;strokeColor=#000000;entryX=0.689;entryY=1.008;entryDx=0;entryDy=0;entryPerimeter=0;exitX=0.633;exitY=0.021;exitDx=0;exitDy=0;exitPerimeter=0;" parent="aK382W0hp0mPZXu5n3Yf-1" source="JMlYKUXQhX_QJ3TKNDeK-101" target="JMlYKUXQhX_QJ3TKNDeK-98" edge="1"><mxGeometry x="-1" y="3" relative="1" as="geometry"><mxPoint x="550" y="216" as="sourcePoint"/><mxPoint x="710" y="216" as="targetPoint"/><Array as="points"><mxPoint x="571" y="276"/><mxPoint x="544" y="276"/><mxPoint x="544" y="216"/><mxPoint x="539" y="216"/></Array></mxGeometry></mxCell></root></mxGraphModel></diagram><diagram id="MWq1LOCYXK3B1TT0MLCc" name="Page-4"><mxGraphModel dx="744" dy="526" grid="1" gridSize="10" guides="1" tooltips="1" connect="1" arrows="1" fold="1" page="1" pageScale="1" pageWidth="850" pageHeight="1100" math="0" shadow="0"><root><mxCell id="s8Maq-dfOZw7ixqBniU5-0"/><mxCell id="s8Maq-dfOZw7ixqBniU5-1" parent="s8Maq-dfOZw7ixqBniU5-0"/></root></mxGraphModel></diagram></mxfile>